{"title":"Downton Abbey S05 All Eps DVDRIP x264 Eng Subs","uid":14140516,"size":3623813688,"categoryP":"video","categoryS":"tv_shows","magnet":"?xt=urn:btih:d296ec29340acfdc139bb099d788677882d2f4e1&amp;dn=Downton+Abbey+S05+All+Eps+DVDRIP+x264+Eng+Subs&amp;tr=udp%3A%2F%2Ftracker.leechers-paradise.org%3A6969&amp;tr=udp%3A%2F%2Fzer0day.ch%3A1337&amp;tr=udp%3A%2F%2Fopen.demonii.com%3A1337&amp;tr=udp%3A%2F%2Ftracker.coppersurfer.tk%3A6969&amp;tr=udp%3A%2F%2Fexodus.desync.com%3A6969","seeders":12,"leechers":7,"uploader":"ChasVA","files":9,"time":1459602468,"description":"The Complete Fifth Season\n\n(See the separate torrent for the Special Features)\n\n-=-=-=-=-=-=-=-=-=-=-=-=-=-=-=-=-=-=-=-=-=-=-=-\n\nTechnical Specifications:\n\nFormat : MPEG-4\nFormat profile : Base Media / Version 2\nCodec ID : mp42 (isom/iso2/avc1/mp41)\nOverall bit rate mode : Variable\nOverall bit rate : 930 Kbps\n\nVideo\n\nID : 1\nFormat : AVC\nFormat/Info : Advanced Video Codec\nFormat profile :   \nFormat settings, CABAC : Yes\nFormat settings, ReFrames : 4 frames\nCodec ID : avc1\nCodec ID/Info : Advanced Video Coding\nBit rate : 755 Kbps\nWidth : 720 pixels\nHeight : 480 pixels\nDisplay aspect ratio : 16:9\nOriginal display aspect ratio : 16:9\nFrame rate mode : Variable\nFrame rate : 23.976 (23976/1000) fps\nMinimum frame rate : 12.048 fps\nMaximum frame rate : 30.303 fps\n\nAudio\n\nID : 2\nFormat : AAC\nFormat/Info : Advanced Audio Codec\nFormat profile : LC\nCodec ID : 40\nBit rate mode : Variable\nBit rate : 160 Kbps\nChannel(s) : 2 channels\nChannel positions : Front: L R\nSampling rate : 48.0 KHz\nFrame rate : 46.875 fps (1024 spf)\nCompression mode : Lossy\nStream size : 78.7 MiB (17%)\nTitle : Stereo / Stereo\nLanguage : English\nDefault : Yes\n\nText\n\nID : 3\nFormat : mp4s\nCodec ID : E0\nBit rate mode : Variable\nBit rate : 7 074 bps\nStream size : 3.43 MiB (1%)\nLanguage : English\nDefault : Yes\nForced : No","torrent":{"xt":"urn:btih:d296ec29340acfdc139bb099d788677882d2f4e1","amp;dn":"Downton+Abbey+S05+All+Eps+DVDRIP+x264+Eng+Subs","amp;tr":["udp%3A%2F%2Ftracker.leechers-paradise.org%3A6969","udp%3A%2F%2Fzer0day.ch%3A1337","udp%3A%2F%2Fopen.demonii.com%3A1337","udp%3A%2F%2Ftracker.coppersurfer.tk%3A6969","udp%3A%2F%2Fexodus.desync.com%3A6969"],"infoHash":"d296ec29340acfdc139bb099d788677882d2f4e1","infoHashBuffer":{"type":"Buffer","data":[210,150,236,41,52,10,207,220,19,155,176,153,215,136,103,120,130,210,244,225]},"announce":[],"urlList":[]}}